<svg xmlns="http://www.w3.org/2000/svg" version="1.1" xmlns:xlink="http://www.w3.org/1999/xlink" xmlns:svgjs="http://svgjs.dev/svgjs" width="1000" height="212" viewBox="0 0 1000 212"><g transform="matrix(1,0,0,1,-0.606054443178266,0.5393241043038444)"><svg viewBox="0 0 396 84" data-background-color="#b19dd0" preserveAspectRatio="xMidYMid meet" height="212" width="1000" xmlns="http://www.w3.org/2000/svg" xmlns:xlink="http://www.w3.org/1999/xlink"><g id="tight-bounds" transform="matrix(1,0,0,1,0.23999755949859036,-0.21369445642227447)"><svg viewBox="0 0 395.52 84.42738891284455" height="84.42738891284455" width="395.52"><g><svg viewBox="0 0 517.2865945390729 110.4195906567335" height="84.42738891284455" width="395.52"><g transform="matrix(1,0,0,1,121.76659453907295,31.17727215290746)"><svg viewBox="0 0 395.52 48.065046350918585" height="48.065046350918585" width="395.52"><g id="textblocktransform"><svg viewBox="0 0 395.52 48.065046350918585" height="48.065046350918585" width="395.52" id="textblock"><g><svg viewBox="0 0 395.52 48.065046350918585" height="48.065046350918585" width="395.52"><g transform="matrix(1,0,0,1,0,0)"><svg width="395.52" viewBox="3.9000000953674316 -35.5 296.6199951171875 36.04999923706055" height="48.065046350918585" data-palette-color="#7a26c1"><path d="M3.9 0L3.9-35 20.6-35 20.6-32.4 6.7-32.4 6.7-20.65 16.25-20.65 15.3-17.9 6.7-17.9 6.7-2.5 20.5-2.5 20.5 0 3.9 0ZM37.2 0L27.15-35 30.15-35 39.1-3.45 48.05-35 51.05-35 41.05 0 37.2 0ZM56.6 0L56.6-35 73.3-35 73.3-32.4 59.4-32.4 59.4-20.65 68.95-20.65 68-17.9 59.4-17.9 59.4-2.5 73.2-2.5 73.2 0 56.6 0ZM101.64 0L82.64-29.85 82.64 0 79.84 0 79.84-35 82.64-35 101.64-5.15 101.64-35 104.44-35 104.44 0 101.64 0ZM116.94 0L116.94-32.5 108.44-32.5 108.44-35 128.54-35 128.54-32.5 119.74-32.5 119.74 0 116.94 0ZM170.34 0L170.34-26.75 161.24 0 158.19 0 149.14-26.75 149.14 0 146.34 0 146.34-35 149.14-35 159.69-4.3 170.34-35 173.14-35 173.14 0 170.34 0ZM199.98 0L195.98-12.25 184.58-12.25 180.68 0 177.73 0 188.93-35 191.58-35 202.98 0 199.98 0ZM190.23-30.65L185.38-15 195.23-15 190.23-30.65ZM208.18-8.9Q208.33-7.2 209.46-5.65 210.58-4.1 212.56-3.13 214.53-2.15 217.08-2.15L217.08-2.15Q220.93-2.15 223.51-3.88 226.08-5.6 226.08-9.35L226.08-9.35Q226.08-11.55 224.83-13.03 223.58-14.5 221.73-15.38 219.88-16.25 216.68-17.4L216.68-17.4Q213.23-18.6 211.16-19.63 209.08-20.65 207.66-22.4 206.23-24.15 206.23-26.9L206.23-26.9Q206.23-29.1 207.48-31.08 208.73-33.05 211.26-34.27 213.78-35.5 217.48-35.5L217.48-35.5Q219.93-35.5 221.53-35.15 223.13-34.8 224.78-34L224.78-34 223.93-31.35Q221.08-32.8 217.58-32.8L217.58-32.8Q213.73-32.8 211.43-31.2 209.13-29.6 209.13-26.75L209.13-26.75Q209.13-24.95 210.28-23.73 211.43-22.5 213.11-21.75 214.78-21 217.78-19.95L217.78-19.95Q221.43-18.7 223.68-17.63 225.93-16.55 227.51-14.58 229.08-12.6 229.08-9.6L229.08-9.6Q229.08-5 226.16-2.23 223.23 0.55 217.13 0.55L217.13 0.55Q213.43 0.55 210.81-0.83 208.18-2.2 206.81-4.38 205.43-6.55 205.33-8.9L205.33-8.9 208.18-8.9ZM240.03 0L240.03-32.5 231.53-32.5 231.53-35 251.63-35 251.63-32.5 242.83-32.5 242.83 0 240.03 0ZM255.53 0L255.53-35 272.23-35 272.23-32.4 258.33-32.4 258.33-20.65 267.88-20.65 266.93-17.9 258.33-17.9 258.33-2.5 272.13-2.5 272.13 0 255.53 0ZM297.67 0L293.42-12.4Q292.52-12.25 291.42-12.25L291.42-12.25 281.57-12.25 281.57 0 278.77 0 278.77-35 291.07-35Q295.82-35 298.15-32.1 300.47-29.2 300.47-24.3L300.47-24.3Q300.47-20.55 299.65-17.65 298.82-14.75 296.07-13.25L296.07-13.25 300.52 0 297.67 0ZM291.47-15Q294.27-15 295.65-16.5 297.02-18 297.35-19.9 297.67-21.8 297.67-24.15L297.67-24.15Q297.67-28.25 295.97-30.3 294.27-32.35 291.27-32.35L291.27-32.35 281.57-32.35 281.57-15 291.47-15Z" opacity="1" transform="matrix(1,0,0,1,0,0)" fill="#7a26c1" class="undefined-text-0" data-fill-palette-color="primary" id="text-0"></path></svg></g></svg></g></svg></g></svg></g><g><svg viewBox="0 0 110.4195906567335 110.4195906567335" height="110.4195906567335" width="110.4195906567335"><g><svg></svg></g><g id="icon-0"><svg viewBox="0 0 110.4195906567335 110.4195906567335" height="110.4195906567335" width="110.4195906567335"><g><rect width="100.40003520825213" height="100.40003520825213" x="5.009777724240685" y="5.009777724240685" fill="#6936f5" data-fill-palette-color="accent"></rect><rect width="100.40003520825213" height="100.40003520825213" x="10.019555448481372" y="-1.7763568394002505e-15" fill="#6936f5" opacity="0.5" data-fill-palette-color="accent"></rect></g><g transform="matrix(1,0,0,1,21.339541295783704,14.313650640687676)"><svg viewBox="0 0 67.7405080651661 81.79228937535815" height="81.79228937535815" width="67.7405080651661"><g><svg xmlns="http://www.w3.org/2000/svg" xmlns:xlink="http://www.w3.org/1999/xlink" version="1.1" x="0" y="0" viewBox="18.75 14.341999053955078 42.5 51.31600570678711" enable-background="new 0 0 80 80" xml:space="preserve" height="81.79228937535815" width="67.7405080651661" class="icon-s-0" data-fill-palette-color="background" id="s-0"><g fill="#b19dd0" data-fill-palette-color="background"><path d="M53.06 18.592v-2.25c0-1.104-0.896-2-2-2s-2 0.896-2 2v1.816H31.372v-1.816c0-1.104-0.896-2-2-2s-2 0.896-2 2v2.139c-4.938 1.188-8.622 5.631-8.622 10.928v2.261h42.5v-2.261C61.25 24.267 57.778 19.93 53.06 18.592zM40 28.675c-1.653 0-3-1.346-3-3s1.347-3 3-3 3 1.346 3 3S41.653 28.675 40 28.675z" fill="#b19dd0" data-fill-palette-color="background"></path><path d="M18.75 54.408c0 6.203 5.047 11.25 11.25 11.25h20c6.203 0 11.25-5.047 11.25-11.25V35.67h-42.5V54.408zM37.854 60.088l-0.579 1.466c-0.144 0.364-0.493 0.587-0.862 0.587-0.113 0-0.229-0.021-0.34-0.064-0.477-0.188-0.71-0.727-0.522-1.203l0.578-1.466c0.188-0.476 0.726-0.708 1.202-0.522C37.808 59.073 38.041 59.611 37.854 60.088zM52.171 55.119C52.024 55.48 51.678 55.7 51.31 55.7c-0.114 0-0.23-0.021-0.344-0.065l-1.464-0.587c-0.476-0.19-0.706-0.73-0.516-1.206 0.19-0.475 0.729-0.705 1.205-0.516l1.464 0.587C52.13 54.104 52.36 54.643 52.171 55.119zM49.397 45.76l1.449-0.617c0.472-0.201 1.015 0.018 1.215 0.49 0.201 0.471-0.019 1.015-0.488 1.215l-1.451 0.617c-0.117 0.051-0.24 0.074-0.362 0.074-0.36 0-0.702-0.211-0.853-0.564C48.706 46.505 48.927 45.96 49.397 45.76zM45.56 61.918c-0.12 0.051-0.245 0.076-0.368 0.076-0.358 0-0.7-0.209-0.851-0.56l-0.625-1.448c-0.203-0.47 0.014-1.016 0.482-1.219 0.471-0.203 1.016 0.014 1.219 0.484l0.625 1.447C46.245 61.17 46.028 61.715 45.56 61.918zM43.497 40.955l0.592-1.459c0.191-0.476 0.73-0.705 1.205-0.512 0.475 0.191 0.704 0.732 0.512 1.206l-0.591 1.46c-0.146 0.361-0.493 0.579-0.858 0.579-0.116 0-0.234-0.021-0.348-0.067C43.534 41.97 43.306 41.43 43.497 40.955zM39.618 45.62c0.559-0.829 1.613-1.229 2.607-0.9S43.828 46 43.781 47l0.006-0.002 0.137 5.439-7.617-2.596 3.308-4.225L39.618 45.62zM35.812 39.043c0.471-0.199 1.016 0.024 1.213 0.496l0.608 1.453c0.198 0.472-0.023 1.015-0.495 1.212-0.117 0.05-0.24 0.072-0.359 0.072-0.361 0-0.705-0.214-0.854-0.568l-0.609-1.452C35.117 39.783 35.339 39.24 35.812 39.043zM34.797 51.986c0.072-0.217 0.183-0.408 0.308-0.586l8.846 3.014c-0.01 0.189-0.035 0.381-0.098 0.57-0.396 1.197-1.691 1.848-2.889 1.453 0 0 0 0-0.002 0l-4.738-1.57v-0.003C35.044 54.459 34.403 53.175 34.797 51.986zM31.902 55.343l-1.444 0.632c-0.12 0.053-0.247 0.078-0.37 0.078-0.357 0-0.698-0.207-0.85-0.557-0.206-0.469 0.009-1.015 0.478-1.219l1.445-0.633c0.47-0.207 1.015 0.011 1.219 0.479C32.586 54.592 32.371 55.139 31.902 55.343zM29.129 45.774c0.195-0.473 0.74-0.696 1.21-0.504l1.455 0.6c0.473 0.196 0.699 0.737 0.504 1.21-0.147 0.357-0.493 0.574-0.857 0.574-0.117 0-0.237-0.023-0.353-0.07l-1.455-0.6C29.159 46.789 28.935 46.248 29.129 45.774z" fill="#b19dd0" data-fill-palette-color="background"></path></g></svg></g></svg></g></svg></g></svg></g></svg></g><defs></defs></svg><rect width="395.52" height="84.42738891284455" fill="none" stroke="none" visibility="hidden"></rect></g></svg></g></svg>